<svg height="40" width="22" xmlns="http://www.w3.org/2000/svg" xmlns:xlink="http://www.w3.org/1999/xlink"><clipPath id="a"><path d="m0 0h40v22h-40z"/></clipPath><g transform="matrix(0 -1 1 0 0 40)"><path d="m0 0h40v22h-40z" fill="none"/><g clip-path="url(#a)"><path d="m33.587 22h-30.969a2.7 2.7 0 0 1 -2.618-2.771v-16.459a2.7 2.7 0 0 1 2.618-2.77h30.969a2.7 2.7 0 0 1 2.618 2.77v3.309h2.049a1.8 1.8 0 0 1 1.746 1.847v6.148a1.8 1.8 0 0 1 -1.745 1.847h-2.05v3.308a2.7 2.7 0 0 1 -2.618 2.771zm-30.787-20.153a1 1 0 0 0 -1 1v16.306a1 1 0 0 0 1 1h30.787a.9.9 0 0 0 .873-.923v-16.46a.9.9 0 0 0 -.873-.923zm33.405 6.079v6.148h2.05v-6.148z" fill="#bbedea"/></g></g></svg>