<svg width="36" height="22" xmlns="http://www.w3.org/2000/svg">
    <g fill="none" fill-rule="evenodd">
        <path
            d="M6.83 8.12c1.982.995 4.048 1.811 6.095 2.67 1.484.623 2.371 1.79 2.587 3.377.043.32.011.65.003.975-.005.234-.116.35-.382.339-.503-.02-.984-.098-1.443-.31-2.227-1.029-4.474-2.017-6.679-3.087-1.71-.83-3.367-1.769-4.904-2.879C1.361 8.666.64 8.083.175 7.259c-.215-.38-.182-.762-.156-1.147.022-.324.064-.666.194-.96.172-.388.434-.74.667-1.102.408-.635 1.053-.864 1.776-.928.656-.059 1.319-.147 1.973-.115a31.6 31.6 0 013.292.307 53.78 53.78 0 014.216.815 37.5 37.5 0 015.639 1.806c.914.378 1.828.759 2.713 1.194 1.32.65 2.622 1.35 3.744 2.297.795.671 1.56 1.407 1.735 2.484.07.429.008.88-.017 1.32-.016.286-.118.57-.107.853.022.538-.24.974-.474 1.42-.234.448-.464.906-.765 1.311-.39.525-.84 1.008-1.276 1.5-.937 1.055-1.89 2.098-2.817 3.163-.357.41-.74.641-1.307.461-.117-.037-.256-.007-.385-.015-.369-.023-.505-.269-.317-.577.126-.205.23-.39.224-.662-.005-.21.193-.445.347-.634.637-.783 1.29-1.553 1.94-2.325a.487.487 0 01.182-.12c.853-.36 1.243-1.034 1.374-1.887.042-.274.06-.557.15-.815.246-.698.047-1.264-.47-1.764-1.023-.987-2.196-1.78-3.45-2.455-1.046-.563-2.097-1.128-3.19-1.596-1.986-.852-3.996-1.665-6.164-1.987-1.045-.156-2.098-.26-3.149-.378-.776-.087-1.555-.16-2.332-.24l-.046.092c.97.516 1.93 1.05 2.912 1.544z"
            fill="#000" />
        <g transform="translate(20)">
            <circle fill="#FF7747" cx="8" cy="8" r="8" />
            <rect fill="#FFF" x="7" y="3" width="1.75" height="7.7" rx=".875" />
            <circle fill="#FFF" cx="7.875" cy="12.875" r="1" />
        </g>
    </g>
</svg>