<svg width="123" height="113" xmlns="http://www.w3.org/2000/svg" xmlns:xlink="http://www.w3.org/1999/xlink"><defs><linearGradient x1="50%" y1="0%" x2="50%" y2="100%" id="e"><stop stop-color="#FFF" stop-opacity=".55" offset="0%"/><stop stop-color="#FFF" stop-opacity="0" offset="62.69%"/><stop stop-color="#FFF" stop-opacity="0" offset="100%"/></linearGradient><linearGradient x1="50%" y1="0%" x2="50%" y2="100%" id="f"><stop stop-color="#FFF" stop-opacity=".55" offset="0%"/><stop stop-color="#FFF" stop-opacity="0" offset="62.69%"/><stop stop-color="#FFF" stop-opacity="0" offset="100%"/></linearGradient><linearGradient x1="50%" y1="0%" x2="50%" y2="100%" id="g"><stop stop-color="#FFF" stop-opacity=".55" offset="0%"/><stop stop-color="#FFF" stop-opacity="0" offset="62.69%"/><stop stop-color="#FFF" stop-opacity="0" offset="100%"/></linearGradient><linearGradient x1="50%" y1="0%" x2="50%" y2="100%" id="h"><stop stop-color="#FFF" stop-opacity=".55" offset="0%"/><stop stop-color="#FFF" stop-opacity="0" offset="62.69%"/><stop stop-color="#FFF" stop-opacity="0" offset="100%"/></linearGradient><linearGradient x1="50%" y1="0%" x2="50%" y2="100%" id="i"><stop stop-color="#FFF" stop-opacity=".55" offset="0%"/><stop stop-color="#FFF" stop-opacity="0" offset="62.69%"/><stop stop-color="#FFF" stop-opacity="0" offset="100%"/></linearGradient><linearGradient x1="50%" y1="0%" x2="50%" y2="100%" id="j"><stop stop-color="#FFF" offset="0%"/><stop stop-color="#FFF" stop-opacity="0" offset="54.455%"/><stop stop-color="#FFF" stop-opacity="0" offset="100%"/></linearGradient><linearGradient x1="50%" y1="0%" x2="50%" y2="100%" id="k"><stop stop-color="#FFF" offset="0%"/><stop stop-color="#FFF" stop-opacity="0" offset="54.455%"/><stop stop-color="#FFF" stop-opacity="0" offset="100%"/></linearGradient><ellipse id="a" cx="26.943" cy="24.552" rx="23.434" ry="20.997"/><ellipse id="c" cx="61.5" cy="30.469" rx="58.586" ry="20.998"/></defs><g fill="none" fill-rule="evenodd"><g transform="translate(31.043)"><mask id="b" fill="#fff"><use xlink:href="#a"/></mask><use fill-opacity=".2" fill="#4DC591" transform="rotate(-9 26.943 24.552)" xlink:href="#a"/><path d="M9.047 21.02c3.492-1.268 9.194-2.47 17.107-3.605l.144-.02a5.695 5.695 0 10-1.691-11.263C16.5 7.408 10.89 11.933 7.777 19.709a1 1 0 001.27 1.311z" fill="#CDE9DD" mask="url(#b)"/></g><g transform="translate(0 10.058)"><mask id="d" fill="#fff"><use xlink:href="#c"/></mask><use fill="#CFE9DE" transform="rotate(-9 61.5 30.469)" xlink:href="#c"/><ellipse fill="#A3DDC4" mask="url(#d)" transform="rotate(-10 59.392 25.129)" cx="59.392" cy="25.129" rx="58.589" ry="16.856"/></g><ellipse fill="#ABCEBF" transform="rotate(-9 62.92 49.583)" cx="62.92" cy="49.583" rx="31.636" ry="11.83"/><ellipse fill="#C8F1DF" transform="rotate(-9 63.058 50.46)" cx="63.058" cy="50.46" rx="26.95" ry="9.168"/><ellipse fill="#F3FCFF" transform="rotate(-9 63.058 49.868)" cx="63.058" cy="49.868" rx="11.717" ry="4.584"/><ellipse fill="#EEE2CF" transform="rotate(-9 14.74 53.156)" cx="14.739" cy="53.156" rx="2.343" ry="1.774"/><ellipse fill="#EEE2CF" transform="rotate(28 111.968 36.59)" cx="111.968" cy="36.59" rx="2.348" ry="1.771"/><ellipse fill="#EEE2CF" transform="rotate(-26 28.68 40.582)" cx="28.681" cy="40.582" rx="2.934" ry="2.362"/><ellipse fill="#EEE2CF" transform="scale(-1 1) rotate(-26 0 433.234)" cx="93.109" cy="29.933" rx="2.934" ry="2.362"/><ellipse fill="#EEE2CF" transform="rotate(-10 57.606 29.922)" cx="57.606" cy="29.922" rx="3.222" ry="2.662"/><path d="M12.425 53.526l1.046 59.107h7.339l-3.757-59.847c-.29-1.17-1.153-1.63-2.588-1.383-1.436.247-2.116.954-2.04 2.123z" fill="url(#e)"/><path d="M25.853 40.94l1.676 58.677h7.338L31.46 39.622c-.517-1.295-1.535-1.76-3.055-1.398-1.52.363-2.371 1.268-2.552 2.715z" fill="url(#f)"/><path d="M106.014 36.953l.772 59.248h7.338l-3.756-59.848c-.03-1.296-.762-1.82-2.198-1.574-1.435.247-2.154.972-2.156 2.174z" fill="url(#g)" transform="matrix(-1 0 0 1 220.138 0)"/><path d="M90.2 30.382l1.968 58.795h8.868L95.85 29.685c-.877-1.804-2.104-2.526-3.682-2.164-1.578.361-2.234 1.315-1.968 2.861z" fill="url(#h)"/><path d="M54.471 29.922l4.268 57.954 12.425-1.499-10.493-57.388c-.563-1.463-1.737-2.026-3.522-1.689-1.785.338-2.678 1.212-2.678 2.622z" fill="url(#i)"/><path d="M51.488 51.72v58.472l45.28-8.425-22.382-55.029c-2.538-2.166-6.921-2.647-13.15-1.442-6.227 1.206-9.477 3.347-9.748 6.423z" fill="url(#j)"/><path d="M61.5 107.924l20.318-4.49c-8.273-39.352-13.782-58.92-16.526-58.706a36.34 36.34 0 00-4.055.568c-.811.157-1.572.33-2.282.519-.658.175.19 20.878 2.545 62.109z" fill="url(#k)"/></g></svg>