<svg width="40" height="40" xmlns="http://www.w3.org/2000/svg"><path d="M19.692 6.022l.284-.005a7.039 7.039 0 017.032 6.754l.007.284v2.813l.703.002c2.24 0 4.09 1.747 4.217 3.983l.006.24v9.853a4.222 4.222 0 01-3.983 4.216l-.24.007H12.234a4.223 4.223 0 01-4.217-3.983l-.006-.24v-9.853c0-2.24 1.747-4.09 3.983-4.217l.24-.006h.703v-2.816a7.039 7.039 0 016.756-7.032l.283-.005-.284.005zm8.026 11.96H12.234a2.11 2.11 0 00-2.103 1.929l-.008.182v9.853c0 1.105.848 2.013 1.929 2.103l.182.009h15.484a2.111 2.111 0 002.103-1.93l.008-.182v-9.853a2.11 2.11 0 00-2.111-2.111zm-7.742-9.854a4.926 4.926 0 00-4.927 4.926v2.816h9.853v-2.816a4.926 4.926 0 00-4.926-4.926zm0 20.059a1.055 1.055 0 01-1.056-1.056v-4.223a1.055 1.055 0 012.111 0v4.223c0 .583-.472 1.056-1.055 1.056z" fill="#333"/></svg>