<svg width="58" height="85" xmlns="http://www.w3.org/2000/svg" xmlns:xlink="http://www.w3.org/1999/xlink"><defs><rect id="c" x="0" y="0" width="12.188" height="16.238" rx="6.09"/><path d="M23.578 0C36.48 0 46.94 10.459 46.94 23.36v3.801H.218v-3.8C.217 10.459 10.675 0 23.578 0z" id="a"/></defs><g transform="translate(.67 .958)" fill="none" fill-rule="evenodd"><path d="M28.417.054h.044c15.695 0 28.417 12.722 28.417 28.417v18.267c0 5.605-4.544 10.15-10.15 10.15H10.15C4.544 56.888 0 52.343 0 46.738V28.47C0 12.776 12.723.054 28.417.054z" fill="#361F36"/><g transform="translate(4.962 66.881)"><mask id="b" fill="#fff"><use xlink:href="#a"/></mask><use fill="#FFE1DF" xlink:href="#a"/><path d="M-2.626.71H49.58v20.441c0 5.634-4.567 10.2-10.201 10.2H7.574c-5.633 0-10.2-4.566-10.2-10.2V.711z" fill="#906BC0" mask="url(#b)"/><g mask="url(#b)" fill="#A1D5F9"><g transform="translate(10.07)"><rect width="5.282" height="28.417" rx=".203"/><rect x="21.532" width="5.282" height="28.417" rx=".203"/></g></g></g><g transform="translate(22.345 58.255)"><mask id="d" fill="#fff"><use xlink:href="#c"/></mask><use fill="#FFE5DA" xlink:href="#c"/><ellipse fill="#ECBBA6" mask="url(#d)" cx="6.094" cy="2.943" rx="10.563" ry="5.886"/></g><g transform="translate(1.219 35.826)" fill="#F4A68F"><ellipse cx="49.87" cy="4.567" rx="4.571" ry="4.567"/><ellipse cx="4.571" cy="4.567" rx="4.571" ry="4.567"/></g><rect stroke="#ECBBA6" stroke-width=".766" fill="#FFE5DA" x="6.071" y="10.024" width="44.94" height="54.647" rx="22.47"/><g transform="translate(15.54 35.318)" fill="#2F3341"><ellipse cx="2.641" cy="3.248" rx="2.641" ry="3.248"/><ellipse cx="23.462" cy="3.248" rx="2.641" ry="3.248"/></g><path fill="#393838" d="M13.33 19.042h31v5h-31z"/><rect fill="#FFCD04" x="25.33" y="21.042" width="9" height="2" rx="1"/><path fill="#361F36" d="M33.01 15.19L20.822 26.844V19.93l-2.946 6.913H5.688L7.006 11.26l16.05-9.433 15.946 1.098L51.09 14.107l2.471 12.737H42.594l-1.412-5.1-1.059 5.1h-2.792z"/><path d="M17.163 26.844c-6.926-.092-10.751 2.023-11.475 6.345.068-4.558.068-8.296 0-11.215l11.475 4.87zM43.373 26.844c4.69-.092 7.397 2.023 8.12 6.345-.067-4.558-.067-8.296 0-11.215l-8.12 4.87z" fill="#361F36"/><g stroke="#333" stroke-width="1.624"><g transform="translate(6.907 27.706)"><ellipse cx="10.665" cy="10.656" rx="10.665" ry="10.656"/><ellipse cx="32.603" cy="10.656" rx="10.665" ry="10.656"/></g></g><path d="M23.965 54.088l2.939-1.017a4.77 4.77 0 013.145.01l2.862 1.009a.304.304 0 01.005.572l-2.772 1.032a4.77 4.77 0 01-3.287.015l-2.896-1.047a.305.305 0 01.004-.574z" fill="#F56E6E"/></g></svg>