<svg width="200" height="142" xmlns="http://www.w3.org/2000/svg"><g fill="none" fill-rule="evenodd"><g fill="#F75E36"><path d="M167 30c0 1.103-.897 2-2 2s-2-.897-2-2 .897-2 2-2 2 .897 2 2m6.58-6.423a1.43 1.43 0 01-2.028.002 9.185 9.185 0 00-6.55-2.708 9.18 9.18 0 00-6.54 2.702 1.451 1.451 0 01-2.04.007 1.45 1.45 0 01-.005-2.038 12.064 12.064 0 018.58-3.542h.011a12.034 12.034 0 018.572 3.55c.56.56.56 1.468 0 2.027"/><path d="M180.573 18c-.379 0-.738-.135-1.01-.38-3.738-3.359-8.648-5.039-13.56-5.039-4.909 0-9.817 1.68-13.553 5.036-.565.503-1.478.505-2.03.008a1.24 1.24 0 01-.42-.919c0-.33.139-.66.417-.91C154.57 12.06 160.104 10 165.999 10c5.895 0 11.43 2.06 15.58 5.793.56.508.562 1.328.004 1.828a1.508 1.508 0 01-1.01.379z"/><path d="M187.586 10.608a1.457 1.457 0 01-1.004.392c-.377 0-.733-.139-1.002-.392-5.49-5.13-12.798-7.956-20.58-7.956-7.78 0-15.086 2.826-20.565 7.952-.561.52-1.468.522-2.017.009a1.282 1.282 0 01-.005-1.89c12.453-11.63 32.717-11.631 45.17-.001.554.524.556 1.37.003 1.886"/></g><path d="M172 76.44v24.688c0 2.68-2.474 4.872-5.497 4.872-3.023 0-5.503-2.193-5.503-4.872V76.44c0-1.89 1.234-3.537 3.016-4.345V41.28c0-1.253 1.158-2.279 2.57-2.279.706 0 1.35.255 1.816.668.466.414.754.985.754 1.61v30.903c.452.219.863.499 1.227.82 1 .882 1.617 2.103 1.617 3.44" fill="#F75E36"/><path d="M50.425 142h-14.85c-3.616 0-6.575-2.7-6.575-6s2.959-6 6.575-6h14.85c3.617 0 6.575 2.7 6.575 6s-2.958 6-6.575 6m116 0h-14.85c-3.616 0-6.575-2.7-6.575-6s2.959-6 6.575-6h14.85c3.617 0 6.575 2.7 6.575 6s-2.958 6-6.575 6" fill="#F9AD6C"/><path d="M200 115.796v4.402c0 4.035-3.18 7.337-7.069 7.337h-4.188v.128c0 4.035-3.18 7.337-7.068 7.337H18.773c-3.888 0-7.069-3.302-7.069-7.337v-.128H7.07c-3.888 0-7.069-3.302-7.069-7.337v-4.402c0-4.035 3.18-7.337 7.069-7.337h4.635v-.122c0-4.035 3.181-7.337 7.069-7.337h162.902c3.887 0 7.068 3.302 7.068 7.337v.122h4.188c3.889 0 7.069 3.302 7.069 7.337" fill="#172B88"/><path d="M32.692 121c-2.04 0-3.692-1.79-3.692-4s1.653-4 3.692-4h88.615c2.04 0 3.693 1.79 3.693 4s-1.653 4-3.693 4H32.692z" fill="#FFC278"/></g></svg>